<svg width="73.1" height="94.4" version="1.1" viewBox="0 0 19.3 25" xmlns="http://www.w3.org/2000/svg">
 <defs>
  <clipPath id="clipPath859">
   <rect x="335" y="508" width="76" height="99.9" ry=".882" fill="none" stroke="#000" stroke-width="2"/>
  </clipPath>
 </defs>
 <path transform="matrix(.265 0 0 .265 -89.175 -135.7)" d="m374 513c-0.614 0.0653-1.11 0.508-1.89 1.37-1.38 1.53-1.59 2.9-1.03 6.92 0.872 6.34-0.084 11.2-2.05 10.4-0.788-0.302-1.43 0.01-1.43 0.695 0 0.686-0.788 1.83-1.75 2.53-1.61 1.18-1.53 1.37 1 2.34 3.46 1.32 3.59 4.28 0.334 7.79-2.16 2.33-2.9 2.54-7.14 1.96-2.6-0.357-5.23-0.239-5.84 0.262-0.665 0.549-3.09 0.518-6.1-0.0762-6-1.18-10.5 0.118-10.5 3.04 0 2.09 1.84 3.13 5.52 3.13 2.03 0 2.45 0.629 3.05 4.6 0.67 4.47 4.9 10.4 7.42 10.4 0.624 0 0.797 1.02 0.426 2.5-0.477 1.9-0.237 2.5 1 2.5 1.15 0 1.5 0.656 1.18 2.25-0.245 1.24-0.982 5.03-1.64 8.42-0.947 4.9-1.63 6.29-3.32 6.76-3.47 0.954-6.49 4.1-6.82 7.09-0.261 2.36 0.317 3.15 3.69 5.03 4.85 2.71 7.82 2.98 9.57 0.861 0.958-1.15 2.29-1.42 4.87-0.98 1.96 0.334 6.55 0.846 10.2 1.14l6.66 0.529-0.875-3.8c-0.984-4.27 0.544-6.3 4.75-6.3 1.27 0 2.31-0.506 2.31-1.12 0-0.717 1.09-0.908 3-0.525 1.79 0.357 3 0.182 3-0.434 0-0.569 0.45-0.756 1-0.416 0.63 0.389 1-1.92 1-6.24 0-3.91 0.503-7.36 1.17-8.03 0.898-0.897 0.898-1.78-4e-3 -3.76-0.813-1.78-0.866-3.16-0.172-4.46 0.553-1.03 1-2.98 1-4.34 0-1.35 0.705-2.73 1.56-3.06 0.86-0.33 1.28-1.05 0.939-1.61-0.574-0.928-0.166-1.11 3.18-1.42 2.06-0.192 7.32-4.58 7.32-6.12 0-1.78-1.18-1.89-2.8-0.273-0.928 0.928-1.53 0.76-2.67-0.75-0.81-1.07-1.49-2.46-1.5-3.09-0.0484-1.74-2.26-2.23-6.6-1.46-3.06 0.54-4.31 0.311-5.62-1.03-1.41-1.45-1.46-1.92-0.318-2.86 0.75-0.622 1.2-1.97 1-3-0.198-1.03 0.284-2.41 1.07-3.06 1.84-1.52 1.84-5.36 8e-3 -6.88-0.782-0.649-1.72-2.95-2.09-5.12-0.513-3.04-1.12-3.94-2.64-3.94-1.09 0-3.13-1.37-4.53-3.04s-3.8-3.68-5.31-4.46c-1.25-0.645-1.98-0.956-2.59-0.891z" clip-path="url(#clipPath859)" fill="none" stroke="#000" stroke-opacity=".3" stroke-width="2"/>
</svg>
